<?xml version="1.0" standalone="no"?>
<!DOCTYPE svg PUBLIC "-//W3C//DTD SVG 20010904//EN"
 "http://www.w3.org/TR/2001/REC-SVG-20010904/DTD/svg10.dtd">
<svg version="1.0" xmlns="http://www.w3.org/2000/svg"
 width="700.000000pt" height="700.000000pt" viewBox="0 0 700.000000 700.000000"
 preserveAspectRatio="xMidYMid meet">
<metadata>
Created by potrace 1.11, written by Peter Selinger 2001-2013
</metadata>
<g transform="translate(0.000000,700.000000) scale(0.100000,-0.100000)"
fill="#000000" stroke="none">
<path d="M4410 6976 c-31 -15 -55 -38 -75 -71 l-30 -48 -1 -434 c-1 -238 -6
-433 -10 -433 -5 1 -20 10 -34 22 -39 33 -164 142 -170 148 -3 3 -39 34 -80
70 -41 36 -77 67 -80 70 -3 3 -39 34 -80 70 -41 36 -81 70 -88 77 -36 34 -101
83 -132 98 -42 22 -131 22 -180 2 -29 -13 -201 -151 -300 -241 -14 -13 -54
-47 -90 -76 -36 -30 -67 -56 -70 -60 -3 -3 -50 -43 -105 -90 -55 -47 -105 -89
-111 -95 -6 -5 -32 -28 -59 -50 -58 -48 -133 -112 -150 -128 -7 -7 -33 -28
-56 -49 -56 -46 -198 -167 -269 -228 -30 -26 -107 -91 -170 -145 -63 -54 -129
-109 -145 -124 -17 -14 -104 -89 -195 -166 -156 -132 -208 -177 -234 -200 -6
-5 -38 -33 -71 -61 -140 -118 -540 -459 -545 -464 -3 -3 -95 -82 -205 -175
-110 -93 -202 -171 -205 -174 -3 -3 -32 -28 -65 -56 -33 -27 -73 -62 -90 -76
-16 -15 -68 -59 -115 -99 -107 -91 -142 -147 -142 -229 0 -205 241 -312 398
-176 206 178 369 313 372 310 3 -2 5 -795 6 -1762 2 -1963 -5 -1791 72 -1866
75 -73 -144 -67 2603 -67 2445 1 2476 1 2516 21 55 27 94 66 119 119 l21 45 1
1735 c1 954 2 1748 3 1763 l1 29 67 -59 c37 -32 73 -62 79 -68 186 -167 255
-225 289 -243 43 -23 159 -22 204 2 117 63 167 208 110 322 -23 47 -44 68
-259 254 -35 30 -89 77 -119 104 -90 78 -108 95 -261 226 -80 68 -147 127
-150 130 -5 5 -118 104 -184 160 -16 14 -34 30 -40 35 -6 6 -29 26 -52 45 -22
19 -69 60 -104 91 -36 31 -94 82 -130 113 l-65 56 -1 983 c-2 1090 3 1023 -68
1085 -20 17 -52 36 -73 41 -24 7 -207 11 -498 11 -460 -1 -460 -1 -505 -24z"/>
</g>
</svg>
