<?xml version="1.0" standalone="no"?>
<!DOCTYPE svg PUBLIC "-//W3C//DTD SVG 20010904//EN"
 "http://www.w3.org/TR/2001/REC-SVG-20010904/DTD/svg10.dtd">
<svg version="1.0" xmlns="http://www.w3.org/2000/svg"
 width="512.000000pt" height="512.000000pt" viewBox="0 0 512.000000 512.000000"
 preserveAspectRatio="xMidYMid meet">
<g transform="translate(0.000000,512.000000) scale(0.100000,-0.100000)"
fill="#000000" stroke="none">
<path d="M3251 5102 c-19 -9 -44 -30 -55 -45 -20 -27 -21 -44 -26 -372 l-5
-344 -120 106 c-66 58 -147 129 -180 158 -33 29 -87 76 -120 105 -66 58 -109
80 -155 80 -34 0 -93 -22 -114 -42 -7 -7 -38 -33 -67 -58 -30 -25 -117 -99
-194 -165 -77 -66 -185 -158 -240 -205 -55 -46 -102 -87 -105 -90 -3 -3 -21
-18 -40 -34 -19 -15 -60 -50 -90 -76 -30 -26 -165 -141 -300 -256 -135 -115
-250 -213 -256 -219 -6 -5 -30 -26 -54 -45 -24 -19 -51 -42 -59 -51 -9 -8 -43
-37 -76 -65 -33 -27 -62 -51 -65 -54 -4 -4 -73 -63 -160 -136 -27 -23 -117
-100 -165 -143 -16 -14 -57 -49 -90 -76 -33 -28 -62 -52 -65 -55 -3 -3 -50
-43 -105 -90 -55 -47 -105 -89 -111 -95 -6 -5 -33 -29 -60 -51 -27 -23 -58
-50 -70 -60 -137 -122 -24 -339 156 -299 32 7 103 60 214 160 6 6 39 34 73 63
l63 54 0 -1283 c0 -1259 0 -1283 20 -1323 11 -23 36 -52 57 -66 l37 -25 1825
-3 c1724 -2 1828 -1 1860 15 19 10 48 35 65 56 l31 39 5 1294 5 1294 60 -51
c33 -29 91 -79 129 -113 96 -85 130 -108 173 -116 98 -17 203 74 203 173 -1
64 -33 109 -146 207 -60 52 -111 97 -114 100 -3 3 -72 64 -155 135 -82 71
-163 142 -180 156 -16 15 -102 89 -190 165 -88 77 -171 149 -185 161 l-25 23
-1 733 c0 520 -4 739 -12 757 -40 88 -51 90 -449 90 -302 0 -342 -2 -372 -18z"/>
</g>
</svg>
