<?xml version="1.0" encoding="iso-8859-1"?>
<!-- Generator: Adobe Illustrator 19.0.0, SVG Export Plug-In . SVG Version: 6.00 Build 0)  -->
<svg version="1.1" id="Capa_1" xmlns="http://www.w3.org/2000/svg" xmlns:xlink="http://www.w3.org/1999/xlink" x="0px" y="0px"
	 viewBox="0 0 458.71 458.71" style="enable-background:new 0 0 458.71 458.71;" xml:space="preserve">
<path style="fill:#4DCFE0;" d="M54.57,214.727v228.31c0,8.882,6.792,15.673,15.673,15.673h318.171
	c8.882,0,15.673-6.792,15.673-15.673V214.204L231.68,63.216L54.57,214.727z"/>
<path style="fill:#D4E1F4;" d="M365.95,143.673V13.061C365.95,5.747,360.203,0,352.888,0h-55.902
	c-7.314,0-13.061,5.747-13.061,13.061v59.037l23.51,20.376L365.95,143.673z"/>
<path style="fill:#3A2C51;" d="M450.064,214.727l-84.114-73.143l-58.514-51.2l-23.51-20.376l-41.796-36.571
	c-5.747-5.224-14.629-5.224-20.376,0L9.117,214.727c-6.792,5.747-7.314,15.673-1.567,21.943c3.135,3.657,7.314,5.225,12.016,5.225
	c3.657,0,7.314-1.045,9.927-3.657l25.078-21.42l177.11-151.51l172.408,150.988l25.078,21.943c6.269,5.747,16.196,5.224,21.943-1.567
	C456.856,230.4,456.333,220.473,450.064,214.727z"/>
<path style="fill:#D4E1F4;" d="M194.064,223.086c-16.718,0-33.437,6.792-45.453,19.331c-12.016,13.061-18.286,29.78-18.286,46.498
	c0,16.718,6.269,33.959,18.808,47.02l64.784,62.171c3.135,3.657,7.314,5.747,12.016,6.269c1.045,0,1.567,0,2.612,0
	c5.224,0,9.927-1.567,14.106-5.224c0.522-0.522,0.522-0.522,1.045-1.045l65.306-62.694l0.522-0.522
	c11.494-12.539,18.286-29.257,18.286-46.498c0-18.286-6.269-34.482-18.286-45.976c0,0,0,0,0-0.522
	c-10.449-10.971-25.078-17.241-41.273-17.241h-0.522c-13.584,0-27.167,4.18-38.661,12.016
	C219.664,229.355,207.648,223.086,194.064,223.086z"/>
<g>
</g>
<g>
</g>
<g>
</g>
<g>
</g>
<g>
</g>
<g>
</g>
<g>
</g>
<g>
</g>
<g>
</g>
<g>
</g>
<g>
</g>
<g>
</g>
<g>
</g>
<g>
</g>
<g>
</g>
</svg>
