<svg width="458.7" height="458.7" xmlns="http://www.w3.org/2000/svg"><title>background</title><path fill="none" d="M-1-1h582v402H-1z"/><g><title>Layer 1</title><path fill="#dbdbdb" d="M55 215v228c0 9 6 16 15 16h318c9 0 16-7 16-16V214L232 63 55 215zM364 144V13c0-7-6-13-13-13h-56c-7 0-13 6-13 13v59l23 20 59 52z"/><path fill="#707070" d="M450 214l-84-73-59-52-23-20-42-37c-6-5-14-5-20 0L9 214c-7 5-7 15-1 22 3 3 7 5 12 5 3 0 7-1 9-4l26-21L232 64l172 151 25 22c6 6 16 5 22-1 6-7 5-17-1-22z"/><path fill="#00822e" d="M194 223c-17 0-33 7-45 19a69 69 0 000 94l65 62c3 4 7 6 12 6h3c5 0 9-1 14-5l1-1 65-63h1c11-13 18-29 18-47s-6-34-18-46a56 56 0 00-42-17c-14 0-27 4-39 12-9-8-21-14-35-14z"/></g></svg>
